#define bullet_width 24
#define bullet_height 24
static unsigned char bullet_bits[] = {
  0x00, 0x00, 0x00, 0xe0, 0x01, 0x00, 0xc0, 0x03, 0x00, 0x80, 0x07, 0x00, 0x00, 0x0f, 0x00, 0x00,
  0x1e, 0x00, 0x00, 0x3c, 0x00, 0x00, 0x78, 0x00, 0x00, 0xf0, 0x00, 0x00, 0xe0, 0x01, 0x00, 0xc0,
  0x03, 0x00, 0x80, 0x07, 0x00, 0x80, 0x07, 0x00, 0xc0, 0x03, 0x00, 0xe0, 0x01, 0x00, 0xf0, 0x00,
  0x00, 0x78, 0x00, 0x00, 0x3c, 0x00, 0x00, 0x1e, 0x00, 0x00, 0x0f, 0x00, 0x80, 0x07, 0x00, 0xc0,
  0x03, 0x00, 0xe0, 0x01, 0x00, 0x00, 0x00, 0x00
};
