#define close_width 24
#define close_height 24
static unsigned char close_bits[] = {
  0x03, 0x00, 0xc0, 0x07, 0x00, 0xe0, 0x0e, 0x00, 0x70, 0x1c, 0x00, 0x38, 0x38, 0x00, 0x1c, 0x70,
  0x00, 0x0e, 0xe0, 0x00, 0x07, 0xc0, 0x81, 0x03, 0x80, 0xc3, 0x01, 0x00, 0xe7, 0x00, 0x00, 0x7e,
  0x00, 0x00, 0x3c, 0x00, 0x00, 0x3c, 0x00, 0x00, 0x7e, 0x00, 0x00, 0xe7, 0x00, 0x80, 0xc3, 0x01,
  0xc0, 0x81, 0x03, 0xe0, 0x00, 0x07, 0x70, 0x00, 0x0e, 0x38, 0x00, 0x1c, 0x1c, 0x00, 0x38, 0x0e,
  0x00, 0x70, 0x07, 0x00, 0xe0, 0x03, 0x00, 0xc0
};
