#define desk_width 24
#define desk_height 24
static unsigned char desk_bits[] {
  0xff, 0xe7, 0xff, 0xff, 0xe7, 0xff, 0xff, 0xe7, 0xff, 0xff, 0xe7, 0xff, 0xff, 0xe7, 0xff, 0xff,
  0xe7, 0xff, 0xff, 0xe7, 0xff, 0xff, 0xe7, 0xff, 0xff, 0xe7, 0xff, 0xff, 0xe7, 0xff, 0x00, 0x00,
  0x00, 0x00, 0x00, 0x00, 0xff, 0xe7, 0xff, 0xff, 0xe7, 0xff, 0xff, 0xe7, 0xff, 0xff, 0xe7, 0xff,
  0xff, 0xe7, 0xff, 0xff, 0xe7, 0xff, 0xff, 0xe7, 0xff, 0xff, 0xe7, 0xff, 0xff, 0xe7, 0xff, 0xff,
  0xe7, 0xff, 0xff, 0xe7, 0xff, 0xff, 0xe7, 0xff
};