#define max_toggled_width 24
#define max_toggled_height 24
static unsigned char max_toggled_bits[] = {
  0xf0, 0xff, 0xff, 0xf0, 0xff, 0xff, 0x30, 0x00, 0xc0, 0x30, 0x00, 0xc0, 0xff, 0xff, 0xcf, 0xff,
  0xff, 0xcf, 0x03, 0x00, 0xcc, 0x03, 0x00, 0xcc, 0x03, 0x00, 0xcc, 0x03, 0x00, 0xcc, 0x03, 0x00,
  0xcc, 0x03, 0x00, 0xcc, 0x03, 0x00, 0xcc, 0x03, 0x00, 0xcc, 0x03, 0x00, 0xcc, 0x03, 0x00, 0xcc,
  0x03, 0x00, 0xcc, 0x03, 0x00, 0xcc, 0x03, 0x00, 0xfc, 0x03, 0x00, 0xfc, 0x03, 0x00, 0x0c, 0x03,
  0x00, 0x0c, 0xff, 0xff, 0x0f, 0xff, 0xff, 0x0f
};
